# xmcd
#
# Track frame offsets:
#	150
#	14795
#	28130
#	41344
#	53092
#	65864
#	79122
#	91531
#	104689
#	117142
#	128885
#	139203
#	157694
#	169696
#	186522
#
# Disc length: 2661 seconds
#
# Revision: 1
# Processed by: cddbd v1.5.2PL0 Copyright (c) Steve Scherf et al.
# Submitted via: audiograbber 1.83.01
#
DISCID=ca0a630f
DTITLE=Roy Orbison - Chartbuster Karaoke
DYEAR=1900
DGENRE=
TTITLE0=Oh, Pretty Woman
TTITLE1=Dream Baby
TTITLE2=Blue Angel
TTITLE3=Ooby Dooby
TTITLE4=Blue Bayou
TTITLE5=Candy Man
TTITLE6=Crying
TTITLE7=In Dreams
TTITLE8=It's Over
TTITLE9=Only The Lonely
TTITLE10=Running Scared
TTITLE11=California Blue
TTITLE12=Goodnight
TTITLE13=Ride Away
TTITLE14=Pretty Paper
EXTD=
EXTT0=
EXTT1=
EXTT2=
EXTT3=
EXTT4=
EXTT5=
EXTT6=
EXTT7=
EXTT8=
EXTT9=
EXTT10=
EXTT11=
EXTT12=
EXTT13=
EXTT14=
PLAYORDER=
